<?xml version="1.0" standalone="no"?>
<!DOCTYPE svg PUBLIC "-//W3C//DTD SVG 20010904//EN"
 "http://www.w3.org/TR/2001/REC-SVG-20010904/DTD/svg10.dtd">
<svg version="1.0" xmlns="http://www.w3.org/2000/svg"
 width="1024.000000pt" height="1024.000000pt" viewBox="0 0 1024.000000 1024.000000"
 preserveAspectRatio="xMidYMid meet">
<metadata>
Created by potrace 1.14, written by Peter Selinger 2001-2017
</metadata>
<g transform="translate(0.000000,1024.000000) scale(0.100000,-0.100000)"
fill="#000000" stroke="none">
<path d="M1810 10230 c-8 -5 -41 -10 -72 -10 -31 0 -60 -4 -63 -10 -3 -5 -28
-10 -55 -10 -27 0 -52 -4 -55 -10 -3 -5 -19 -10 -36 -10 -16 0 -37 -4 -47 -9
-29 -15 -87 -31 -110 -31 -12 0 -22 -4 -22 -8 0 -4 -21 -14 -46 -21 -25 -8
-63 -22 -85 -32 -21 -11 -45 -19 -54 -19 -8 0 -15 -4 -15 -10 0 -5 -9 -10 -20
-10 -11 0 -20 -4 -20 -10 0 -5 -9 -10 -20 -10 -11 0 -20 -3 -20 -7 0 -5 -10
-13 -23 -19 -62 -31 -114 -61 -131 -76 -11 -10 -25 -18 -32 -18 -7 0 -14 -3
-16 -7 -1 -5 -28 -27 -58 -49 -30 -23 -65 -51 -77 -63 -12 -12 -26 -21 -30
-21 -10 0 -223 -214 -223 -224 0 -4 -9 -17 -21 -29 -12 -12 -40 -47 -63 -77
-22 -30 -44 -56 -48 -58 -5 -2 -8 -9 -8 -16 0 -7 -8 -21 -17 -32 -17 -18 -55
-83 -78 -131 -5 -13 -13 -23 -17 -23 -5 0 -8 -9 -8 -20 0 -11 -4 -20 -10 -20
-5 0 -10 -9 -10 -20 0 -11 -4 -20 -8 -20 -4 0 -14 -20 -21 -45 -7 -25 -17 -45
-22 -45 -5 0 -9 -11 -9 -24 0 -14 -5 -28 -10 -31 -6 -3 -10 -17 -10 -30 0 -13
-5 -27 -10 -30 -6 -3 -10 -17 -10 -30 0 -13 -4 -27 -10 -30 -5 -3 -10 -19 -10
-36 0 -16 -4 -29 -10 -29 -5 0 -10 -18 -10 -39 0 -22 -5 -43 -10 -46 -6 -3
-10 -28 -10 -56 0 -27 -4 -49 -9 -49 -5 0 -12 -33 -16 -72 -9 -95 -9 -6661 0
-6755 4 -40 11 -73 16 -73 5 0 9 -22 9 -49 0 -28 4 -53 10 -56 5 -3 10 -24 10
-46 0 -21 5 -39 10 -39 6 0 10 -13 10 -29 0 -17 5 -33 10 -36 6 -3 10 -17 10
-30 0 -13 4 -27 10 -30 5 -3 10 -17 10 -30 0 -13 5 -27 10 -30 6 -3 10 -17 10
-31 0 -13 4 -24 9 -24 5 0 15 -20 22 -45 7 -25 17 -45 21 -45 4 0 8 -9 8 -20
0 -11 5 -20 10 -20 6 0 10 -9 10 -20 0 -11 3 -20 8 -20 4 0 12 -10 17 -23 23
-48 61 -113 78 -131 9 -11 17 -25 17 -32 0 -7 3 -14 8 -16 4 -1 26 -28 48 -58
23 -30 51 -65 63 -77 12 -12 21 -26 21 -30 0 -10 214 -223 224 -223 4 0 17 -9
29 -21 12 -12 47 -40 77 -63 30 -22 57 -44 58 -48 2 -5 9 -8 16 -8 7 0 21 -8
32 -17 17 -16 69 -46 131 -77 13 -6 23 -14 23 -18 0 -5 9 -8 20 -8 11 0 20 -4
20 -10 0 -5 9 -10 20 -10 11 0 20 -4 20 -10 0 -5 7 -10 15 -10 9 0 33 -8 54
-19 22 -10 60 -24 85 -32 25 -7 46 -17 46 -21 0 -4 10 -8 22 -8 23 0 81 -16
110 -31 10 -5 31 -9 47 -9 17 0 33 -4 36 -10 3 -5 28 -10 54 -10 26 0 51 -4
56 -9 6 -5 39 -12 75 -16 85 -9 6655 -9 6740 0 36 4 69 11 75 16 5 5 30 9 56
9 26 0 51 5 54 10 3 6 19 10 36 10 16 0 37 4 47 9 29 15 87 31 110 31 12 0 22
4 22 8 0 4 21 14 46 21 25 8 63 22 85 32 21 11 45 19 54 19 8 0 15 5 15 10 0
6 9 10 20 10 11 0 20 5 20 10 0 6 9 10 20 10 11 0 20 3 20 8 0 4 10 12 23 18
62 31 114 61 131 77 11 9 25 17 32 17 7 0 14 3 16 8 2 4 28 26 58 48 30 23 65
51 77 63 12 12 26 21 30 21 10 0 223 214 223 224 0 4 9 17 21 29 12 12 40 47
63 77 22 30 44 56 48 58 5 2 8 9 8 16 0 7 8 21 18 32 16 18 54 83 77 131 5 13
13 23 18 23 4 0 7 9 7 20 0 11 5 20 10 20 6 0 10 9 10 20 0 11 4 20 8 20 4 0
14 20 21 45 7 25 17 45 22 45 5 0 9 11 9 24 0 14 5 28 10 31 6 3 10 17 10 30
0 13 5 27 10 30 5 3 10 17 10 30 0 13 5 27 10 30 5 3 10 19 10 36 0 16 5 29
10 29 6 0 10 18 10 39 0 22 5 43 10 46 6 3 10 28 10 56 0 27 4 49 9 49 5 0 12
33 16 72 9 95 9 6661 0 6756 -4 39 -11 72 -16 72 -5 0 -9 22 -9 49 0 28 -5 53
-10 56 -6 3 -10 24 -10 46 0 21 -4 39 -10 39 -5 0 -10 13 -10 29 0 17 -5 33
-10 36 -5 3 -10 17 -10 30 0 13 -4 27 -10 30 -5 3 -10 17 -10 30 0 13 -4 27
-10 30 -5 3 -10 17 -10 31 0 13 -4 24 -9 24 -5 0 -15 20 -22 45 -7 25 -17 45
-21 45 -4 0 -8 9 -8 20 0 11 -4 20 -10 20 -5 0 -10 9 -10 20 0 11 -3 20 -7 20
-5 0 -13 10 -18 23 -23 48 -61 113 -77 131 -10 11 -18 25 -18 32 0 7 -3 14 -8
16 -4 2 -26 28 -48 58 -23 30 -51 65 -63 77 -12 12 -21 25 -21 29 0 10 -213
224 -223 224 -4 0 -18 9 -30 21 -12 12 -47 40 -77 63 -30 22 -56 44 -58 49 -2
4 -9 7 -16 7 -7 0 -21 8 -32 18 -17 15 -69 45 -131 76 -13 6 -23 14 -23 19 0
4 -9 7 -20 7 -11 0 -20 5 -20 10 0 6 -9 10 -20 10 -11 0 -20 5 -20 10 0 6 -7
10 -15 10 -9 0 -33 8 -54 19 -22 10 -60 24 -85 32 -25 7 -46 17 -46 21 0 4
-10 8 -22 8 -23 0 -81 16 -110 31 -10 5 -31 9 -47 9 -17 0 -33 5 -36 10 -3 6
-28 10 -54 10 -26 0 -51 4 -57 9 -5 5 -38 12 -74 16 -105 12 -6663 16 -6680 5z
m3390 -2825 c14 -8 527 -517 1141 -1132 1012 -1013 1117 -1122 1124 -1157 11
-65 -3 -114 -45 -156 -44 -44 -86 -56 -158 -45 -45 7 -56 16 -248 206 -110
109 -203 199 -207 199 -4 0 -8 -537 -9 -1192 -3 -1190 -3 -1193 -24 -1233 -12
-22 -36 -49 -55 -60 -33 -19 -55 -20 -564 -23 -291 -2 -545 0 -562 3 -32 6
-33 7 -33 57 0 78 -38 300 -71 413 -71 243 -154 424 -281 614 -28 42 -54 78
-57 81 -3 3 -18 21 -33 42 -15 20 -33 42 -40 50 -8 7 -37 41 -67 75 -51 59
-217 210 -306 279 -48 37 -162 114 -168 114 -3 0 -34 17 -68 38 -35 21 -81 46
-101 55 -49 22 -108 47 -133 57 -11 4 -31 12 -45 18 -145 63 -470 129 -665
135 l-70 2 -3 238 c-2 167 -6 237 -14 237 -6 0 -92 -81 -191 -180 -200 -200
-235 -223 -331 -224 -57 -1 -60 1 -96 42 -42 47 -55 92 -45 156 6 39 73 107
1108 1144 606 607 1120 1116 1142 1132 22 15 49 30 60 33 27 7 84 -2 115 -18z
m-1432 -2914 c21 -5 62 -15 92 -21 177 -38 406 -139 574 -253 140 -94 348
-290 443 -417 90 -121 190 -295 234 -407 5 -13 13 -33 18 -45 5 -13 15 -41 22
-63 6 -22 15 -51 19 -65 25 -81 47 -208 55 -312 l7 -88 -185 0 -184 0 -12 73
c-37 222 -91 380 -189 549 -65 114 -209 280 -317 368 -128 104 -216 158 -350
215 -22 9 -48 21 -57 26 -10 5 -25 9 -33 9 -8 0 -23 4 -33 9 -18 9 -64 22
-142 40 -38 8 -167 25 -260 34 l-25 2 -3 170 c-1 93 0 176 3 184 5 12 29 13
146 8 77 -4 157 -11 177 -16z m-93 -701 c17 -5 50 -14 75 -21 42 -12 94 -32
165 -65 163 -76 330 -223 441 -389 87 -130 141 -277 169 -457 l6 -38 -184 0
-183 0 -24 77 c-49 160 -134 295 -238 378 -58 46 -187 117 -232 127 -14 3 -51
13 -83 22 -32 9 -73 16 -90 16 -18 0 -38 5 -45 12 -17 17 -17 344 1 352 16 7
184 -3 222 -14z m-167 -681 c142 -33 258 -129 299 -248 7 -19 9 -39 6 -44 -9
-15 -253 -3 -283 14 -62 35 -90 101 -90 217 0 79 -2 77 68 61z"/>
</g>
</svg>
